# Blender v2.74 (sub 0) OBJ File: 'tile.blend'
# www.blender.org
o Cube_Cube.001
v 1.447129 0.003172 0.642389
v 1.447129 2.457516 0.642389
v 1.495524 0.003172 0.642389
v 1.495524 2.457516 0.642389
v 1.495524 2.408429 0.642389
v 1.447129 2.408429 0.642389
v 1.495524 2.457516 0.591674
v 1.447129 0.003172 0.591674
v 1.495524 0.003172 0.591674
v 1.447129 2.457516 0.591674
v 1.447129 2.408429 0.591674
v 1.495524 2.408429 0.591674
v 1.447129 0.003172 -0.642389
v 1.447129 2.457516 -0.642389
v 1.495524 0.003172 -0.642389
v 1.495524 2.457516 -0.642389
v 1.495524 2.408429 -0.642389
v 1.447129 2.408429 -0.642389
v 1.495524 2.457516 -0.591674
v 1.447129 0.003172 -0.591674
v 1.495524 0.003172 -0.591674
v 1.447129 2.457516 -0.591674
v 1.447129 2.408429 -0.591674
v 1.495524 2.408429 -0.591674
vt 1.365804 3.174700
vt 1.903419 -2.617138
vt 1.962675 -2.595061
vt 1.390007 3.326905
vt -0.530740 3.605212
vt -0.467487 3.583135
vt 1.358639 3.292900
vt 1.411808 3.196777
vt 1.398083 3.208704
vt 1.349315 3.186627
vt -0.482418 3.464933
vt 1.341854 3.304828
vt 1.931340 -2.605210
vt 1.404114 3.314977
vt -1.103441 -2.292899
vt -1.057967 -2.314976
vt -0.513172 3.476861
vt -0.572832 3.498938
vt -0.499406 3.595062
vt -1.072074 -2.326904
vt -0.558662 3.617139
vt 1.994594 -2.583133
vt -1.120227 -2.304826
vt -0.546243 3.487010
vn 0.000000 0.000000 1.000000
vn 0.000000 1.000000 0.000000
vn 0.000000 -1.000000 0.000000
vn -1.000000 0.000000 0.000000
vn 0.000000 0.000000 -1.000000
s off
f 6/1/1 1/2/1 3/3/1
f 7/4/2 19/5/2 22/6/2
f 2/7/1 6/1/1 5/8/1
f 12/9/3 11/10/3 23/11/3
f 10/12/4 11/10/4 6/1/4
f 11/10/4 8/13/4 1/2/4
f 4/14/2 7/4/2 10/12/2
f 15/15/5 13/16/5 18/17/5
f 17/18/5 18/17/5 14/19/5
f 18/17/4 23/11/4 22/6/4
f 13/16/4 20/20/4 23/11/4
f 22/6/2 19/5/2 16/21/2
f 11/10/4 10/12/4 22/6/4
f 12/9/5 9/22/5 8/13/5
f 20/20/1 21/23/1 24/24/1
f 5/8/1 6/1/1 3/3/1
f 10/12/2 7/4/2 22/6/2
f 4/14/1 2/7/1 5/8/1
f 24/24/3 12/9/3 23/11/3
f 2/7/4 10/12/4 6/1/4
f 6/1/4 11/10/4 1/2/4
f 2/7/2 4/14/2 10/12/2
f 17/18/5 15/15/5 18/17/5
f 16/21/5 17/18/5 14/19/5
f 14/19/4 18/17/4 22/6/4
f 18/17/4 13/16/4 23/11/4
f 14/19/2 22/6/2 16/21/2
f 23/11/4 11/10/4 22/6/4
f 11/10/5 12/9/5 8/13/5
f 23/11/1 20/20/1 24/24/1
