# Blender v2.74 (sub 0) OBJ File: 'walls_hall.blend'
# www.blender.org
o Cube.004_Cube
v -0.409142 2.986622 0.819660
v -0.409142 2.986622 -0.819660
v 0.409142 2.986622 -0.819660
v 0.409142 2.986622 0.819660
v -0.416610 3.000688 0.834591
v -0.416610 3.000688 -0.834611
v 0.416590 3.000688 -0.834611
v 0.416590 3.000688 0.834591
v -0.416610 3.000688 0.817558
v -0.409142 2.986622 0.802932
v 0.416590 3.000688 0.817558
v 0.409142 2.986622 0.802932
v -0.416610 3.000688 -0.814130
v 0.409142 2.986622 -0.799545
v -0.409142 2.986622 -0.799545
v 0.416590 3.000688 -0.814130
v 0.402818 3.000688 -0.834611
v 0.395616 2.986622 -0.819660
v 0.402818 3.000688 0.834591
v 0.395616 2.986622 0.819660
v 0.395616 2.986622 0.802932
v 0.395616 2.986622 -0.799545
v -0.392235 2.986622 -0.819660
v -0.399395 3.000688 0.834591
v -0.399395 3.000688 -0.834611
v -0.392235 2.986622 0.819660
v -0.392235 2.986622 0.802932
v -0.392235 2.986622 -0.799545
v 0.395616 3.036648 0.802932
v 0.395616 3.036648 -0.799545
v -0.392235 3.036648 0.802932
v -0.392235 3.036648 -0.799545
vt 1.028283 1.377272
vt 1.028283 1.369503
vt 1.619439 1.369503
vt -0.154027 1.379969
vt -0.154027 1.369503
vt 0.437128 1.369503
vt -0.745183 1.375964
vt -0.745183 1.369503
vt 1.016070 1.369503
vt 1.028283 2.002707
vt 2.130282 -0.882529
vt 2.140053 -0.882529
vt 2.140053 -0.874760
vt 1.028283 1.996246
vt 1.619439 1.996246
vt 1.619439 2.002707
vt -0.745183 1.994938
vt -0.154028 1.375964
vt 2.130282 -0.255786
vt 2.140053 -0.255786
vt 2.140053 -0.249325
vt 1.619439 1.377272
vt 2.130282 -0.874760
vt -0.154028 1.994937
vt -0.154028 2.002707
vt -0.154027 1.989624
vt 0.437128 1.379969
vt 0.446899 1.369503
vt 0.446899 2.002707
vt 0.437128 2.002707
vt 1.561111 -0.882529
vt 1.561111 -0.255786
vt 2.130282 -0.249325
vt 0.410556 -0.882529
vt 0.410556 1.369502
vt -0.167313 1.369502
vt 1.016070 2.002707
vt 0.437128 1.989624
vt 1.548898 -0.882529
vt 1.561111 -0.874760
vt 1.548898 -0.255786
vt 1.561111 -0.249325
vt 1.548898 -0.874760
vt -0.745183 -0.882529
vt -0.167314 -0.882529
vt 0.979727 -0.882529
vt 0.979727 1.369502
vt -0.745183 2.002707
vt 1.548898 -0.249325
vt 1.548898 1.369503
vn -0.883200 -0.469000 0.000000
vn 0.000000 -0.728400 -0.685200
vn 0.883800 -0.468000 0.000000
vn 0.000000 -0.727900 0.685700
vn 0.000000 -1.000000 0.000000
vn 0.883700 -0.468000 0.000000
vn 1.000000 0.000000 0.000000
vn -1.000000 0.000000 0.000000
vn 0.000000 0.000000 1.000000
vn 0.000000 0.000000 -1.000000
s off
f 13/1/1 6/2/1 2/3/1
f 17/4/2 7/5/2 3/6/2
f 11/7/3 8/8/3 4/5/3
f 24/9/4 5/2/4 1/10/4
f 18/11/5 3/12/5 14/13/5
f 9/14/1 10/15/1 1/16/1
f 16/17/6 11/7/6 12/18/6
f 21/19/5 12/20/5 4/21/5
f 13/1/1 15/22/1 10/15/1
f 22/23/5 14/13/5 12/20/5
f 16/17/6 14/24/6 3/25/6
f 25/26/2 17/4/2 18/27/2
f 19/28/4 20/29/4 4/30/4
f 23/31/5 18/11/5 22/23/5
f 27/32/5 21/19/5 20/33/5
f 28/34/7 32/35/7 31/36/7
f 24/9/4 26/37/4 20/29/4
f 25/26/2 23/38/2 2/30/2
f 2/39/5 23/31/5 28/40/5
f 10/41/5 27/32/5 26/42/5
f 15/43/5 28/40/5 27/32/5
f 21/8/8 29/44/8 30/45/8
f 22/35/9 30/34/9 32/46/9
f 27/47/10 31/46/10 29/39/10
f 15/22/1 13/1/1 2/3/1
f 18/27/2 17/4/2 3/6/2
f 12/18/6 11/7/6 4/5/6
f 26/37/4 24/9/4 1/10/4
f 22/23/5 18/11/5 14/13/5
f 5/10/1 9/14/1 1/16/1
f 14/24/3 16/17/3 12/18/3
f 20/33/5 21/19/5 4/21/5
f 9/14/1 13/1/1 10/15/1
f 21/19/5 22/23/5 12/20/5
f 7/48/3 16/17/3 3/25/3
f 23/38/2 25/26/2 18/27/2
f 8/6/4 19/28/4 4/30/4
f 28/40/5 23/31/5 22/23/5
f 26/42/5 27/32/5 20/33/5
f 27/45/7 28/34/7 31/36/7
f 19/28/4 24/9/4 20/29/4
f 6/25/2 25/26/2 2/30/2
f 15/43/5 2/39/5 28/40/5
f 1/49/5 10/41/5 26/42/5
f 10/41/5 15/43/5 27/32/5
f 22/36/8 21/8/8 30/45/8
f 28/47/9 22/35/9 32/46/9
f 21/50/10 27/47/10 29/39/10
