# Blender v2.74 (sub 0) OBJ File: 'walls_hall.blend'
# www.blender.org
o Cube.004_Cube
v -0.299044 2.986622 0.548445
v -0.299044 2.986622 -0.548445
v 0.299044 2.986622 -0.548445
v 0.299044 2.986622 0.548445
v -0.304502 3.000688 0.558435
v -0.304502 3.000688 -0.558449
v 0.304487 3.000688 -0.558449
v 0.304487 3.000688 0.558435
v -0.304502 3.000688 0.547039
v -0.299044 2.986622 0.537252
v 0.304487 3.000688 0.547039
v 0.299044 2.986622 0.537252
v -0.304502 3.000688 -0.544745
v 0.299044 2.986622 -0.534986
v -0.299044 2.986622 -0.534986
v 0.304487 3.000688 -0.544745
v 0.294421 3.000688 -0.558449
v 0.289158 2.986622 -0.548445
v 0.294421 3.000688 0.558435
v 0.289158 2.986622 0.548445
v 0.289158 2.986622 0.537252
v 0.289158 2.986622 -0.534986
v -0.286686 2.986622 -0.548445
v -0.291920 3.000688 0.558435
v -0.291920 3.000688 -0.558449
v -0.286686 2.986622 0.548445
v -0.286686 2.986622 0.537252
v -0.286686 2.986622 -0.534986
v 0.289158 3.036648 0.537252
v 0.289158 3.036648 -0.534986
v -0.286686 3.036648 0.537252
v -0.286686 3.036648 -0.534986
vt 1.028283 1.377272
vt 1.028283 1.369503
vt 1.619439 1.369503
vt -0.154027 1.379969
vt -0.154027 1.369503
vt 0.437128 1.369503
vt -0.745183 1.375964
vt -0.745183 1.369503
vt 1.016070 1.369503
vt 1.028283 2.002707
vt 2.130282 -0.882529
vt 2.140053 -0.882529
vt 2.140053 -0.874760
vt 1.028283 1.996246
vt 1.619439 1.996246
vt 1.619439 2.002707
vt -0.745183 1.994938
vt -0.154028 1.375964
vt 2.130282 -0.255786
vt 2.140053 -0.255786
vt 2.140053 -0.249325
vt 1.619439 1.377272
vt 2.130282 -0.874760
vt -0.154028 1.994937
vt -0.154028 2.002707
vt -0.154027 1.989624
vt 0.437128 1.379969
vt 0.446899 1.369503
vt 0.446899 2.002707
vt 0.437128 2.002707
vt 1.561111 -0.882529
vt 1.561111 -0.255786
vt 2.130282 -0.249325
vt 0.410556 -0.882529
vt 0.410556 1.369502
vt -0.167313 1.369502
vt 1.016070 2.002707
vt 0.437128 1.989624
vt 1.548898 -0.882529
vt 1.561111 -0.874760
vt 1.548898 -0.255786
vt 1.561111 -0.249325
vt 1.548898 -0.874760
vt -0.745183 -0.882529
vt -0.167314 -0.882529
vt 0.979727 -0.882529
vt 0.979727 1.369502
vt -0.745183 2.002707
vt 1.548898 -0.249325
vt 1.548898 1.369503
vn -0.932300 -0.361800 0.000000
vn 0.000000 -0.579600 -0.814900
vn 0.932600 -0.360900 0.000000
vn 0.000000 -0.579100 0.815300
vn 0.000000 -1.000000 0.000000
vn 1.000000 0.000000 0.000000
vn -1.000000 0.000000 0.000000
vn 0.000000 0.000000 1.000000
vn 0.000000 0.000000 -1.000000
s off
f 13/1/1 6/2/1 2/3/1
f 17/4/2 7/5/2 3/6/2
f 11/7/3 8/8/3 4/5/3
f 24/9/4 5/2/4 1/10/4
f 18/11/5 3/12/5 14/13/5
f 9/14/1 10/15/1 1/16/1
f 16/17/3 11/7/3 12/18/3
f 21/19/5 12/20/5 4/21/5
f 13/1/1 15/22/1 10/15/1
f 22/23/5 14/13/5 12/20/5
f 16/17/3 14/24/3 3/25/3
f 25/26/2 17/4/2 18/27/2
f 19/28/4 20/29/4 4/30/4
f 23/31/5 18/11/5 22/23/5
f 27/32/5 21/19/5 20/33/5
f 28/34/6 32/35/6 31/36/6
f 24/9/4 26/37/4 20/29/4
f 25/26/2 23/38/2 2/30/2
f 2/39/5 23/31/5 28/40/5
f 10/41/5 27/32/5 26/42/5
f 15/43/5 28/40/5 27/32/5
f 21/8/7 29/44/7 30/45/7
f 22/35/8 30/34/8 32/46/8
f 27/47/9 31/46/9 29/39/9
f 15/22/1 13/1/1 2/3/1
f 18/27/2 17/4/2 3/6/2
f 12/18/3 11/7/3 4/5/3
f 26/37/4 24/9/4 1/10/4
f 22/23/5 18/11/5 14/13/5
f 5/10/1 9/14/1 1/16/1
f 14/24/3 16/17/3 12/18/3
f 20/33/5 21/19/5 4/21/5
f 9/14/1 13/1/1 10/15/1
f 21/19/5 22/23/5 12/20/5
f 7/48/3 16/17/3 3/25/3
f 23/38/2 25/26/2 18/27/2
f 8/6/4 19/28/4 4/30/4
f 28/40/5 23/31/5 22/23/5
f 26/42/5 27/32/5 20/33/5
f 27/45/6 28/34/6 31/36/6
f 19/28/4 24/9/4 20/29/4
f 6/25/2 25/26/2 2/30/2
f 15/43/5 2/39/5 28/40/5
f 1/49/5 10/41/5 26/42/5
f 10/41/5 15/43/5 27/32/5
f 22/36/7 21/8/7 30/45/7
f 28/47/8 22/35/8 32/46/8
f 21/50/9 27/47/9 29/39/9
