# Blender v2.74 (sub 0) OBJ File: 'walls_hall.blend'
# www.blender.org
o Plane.001_Plane.005
v 0.293118 2.976125 0.540627
v -0.293118 2.976125 0.540627
v 0.293118 2.976125 -0.540627
v -0.293118 2.976125 -0.540627
v 0.293118 2.996307 0.540627
v -0.293118 2.996307 0.540627
v 0.293118 2.996307 -0.540627
v -0.293118 2.996307 -0.540627
vt 0.000100 0.999900
vt 0.000100 0.000100
vt 0.999900 0.000100
vt 0.999900 0.999900
vn 0.000000 -1.000000 0.000000
vn 0.000000 1.000000 0.000000
vn 0.000000 0.000000 -1.000000
vn -1.000000 0.000000 0.000000
vn 0.000000 0.000000 1.000000
vn 1.000000 0.000000 0.000000
s off
f 2/1/1 4/2/1 3/3/1
f 7/3/2 8/2/2 6/1/2
f 8/2/3 7/3/3 3/3/3
f 6/1/4 8/2/4 4/2/4
f 5/4/5 6/1/5 2/1/5
f 7/3/6 5/4/6 1/4/6
f 1/4/1 2/1/1 3/3/1
f 5/4/2 7/3/2 6/1/2
f 4/2/3 8/2/3 3/3/3
f 2/1/4 6/1/4 4/2/4
f 1/4/5 5/4/5 2/1/5
f 3/3/6 7/3/6 1/4/6
