# Blender v2.72 (sub 0) OBJ File: 'walls_hall.blend'
# www.blender.org
o Icosphere_Icosphere.003
v 0.000000 2.771879 0.000000
v 0.211661 2.890759 0.153779
v -0.080846 2.890759 0.248822
v -0.261627 2.890760 0.000000
v -0.080846 2.890759 -0.248822
v 0.211661 2.890759 -0.153779
v -0.068102 2.845532 0.209600
v -0.047520 2.803997 0.146252
v -0.022701 2.778771 0.069866
v 0.059432 2.778771 0.043179
v 0.124410 2.803997 0.090388
v 0.178297 2.845532 0.129539
v 0.155597 2.878913 0.199406
v 0.076891 2.873873 0.236642
v -0.008670 2.878913 0.252781
v 0.237730 2.878914 -0.086359
v 0.248821 2.873874 0.000000
v 0.237730 2.878914 0.086359
v 0.059432 2.778771 -0.043179
v 0.124410 2.803997 -0.090388
v 0.178297 2.845532 -0.129539
v -0.220388 2.845533 0.000000
v -0.153780 2.803998 0.000000
v -0.073462 2.778772 0.000000
v -0.141565 2.878913 0.209601
v -0.201301 2.873873 0.146253
v -0.243089 2.878914 0.069866
v -0.068102 2.845532 -0.209600
v -0.047520 2.803997 -0.146252
v -0.022701 2.778771 -0.069866
v -0.243089 2.878914 -0.069866
v -0.201301 2.873873 -0.146253
v -0.141565 2.878913 -0.209601
v -0.008670 2.878913 -0.252781
v 0.076891 2.873873 -0.236642
v 0.155597 2.878913 -0.199406
v 0.266700 2.940846 0.086655
v 0.251761 2.932926 0.129539
v 0.251761 2.932926 -0.129539
v 0.266700 2.940846 -0.086655
v 0.000000 2.940846 0.280425
v -0.045402 2.932925 0.279468
v 0.200999 2.932925 0.199407
v 0.164830 2.940846 0.226868
v -0.266700 2.940846 0.086655
v -0.279820 2.932926 0.043180
v -0.127535 2.932925 0.252782
v -0.164830 2.940846 0.226868
v -0.164830 2.940846 -0.226868
v -0.127535 2.932925 -0.252782
v -0.279820 2.932926 -0.043180
v -0.266700 2.940846 -0.086655
v 0.164830 2.940846 -0.226868
v 0.200999 2.932925 -0.199407
v -0.045402 2.932925 -0.279468
v 0.000000 2.940846 -0.280425
v 0.015442 2.831319 0.201300
v 0.040424 2.794583 0.124410
v 0.105831 2.831319 0.171930
v 0.196219 2.831319 -0.047520
v 0.196219 2.831319 0.047520
v 0.130813 2.794583 0.000000
v -0.186677 2.831319 0.076890
v -0.105830 2.794583 0.076890
v -0.130813 2.831319 0.153780
v -0.130813 2.831319 -0.153779
v -0.105830 2.794583 -0.076889
v -0.186677 2.831319 -0.076889
v 0.105830 2.831319 -0.171930
v 0.040424 2.794583 -0.124410
v 0.015441 2.831319 -0.201300
v 0.280425 2.940846 0.000000
v 0.277067 2.927496 0.047520
v 0.277067 2.927496 -0.047520
v 0.086656 2.940846 0.266700
v 0.040424 2.927496 0.278191
v 0.130814 2.927496 0.248821
v -0.226869 2.940846 0.164829
v -0.252084 2.927496 0.124411
v -0.196220 2.927496 0.201301
v -0.226869 2.940846 -0.164829
v -0.196220 2.927496 -0.201301
v -0.252084 2.927496 -0.124411
v 0.086656 2.940846 -0.266700
v 0.130814 2.927496 -0.248821
v 0.040424 2.927496 -0.278191
v 0.226869 2.940846 0.164829
v -0.086656 2.940846 0.266700
v -0.280425 2.940847 0.000000
v -0.086656 2.940846 -0.266700
v 0.226869 2.940846 -0.164829
vt 0.508771 0.314613
vt 0.547464 0.297003
vt 0.546086 0.389891
vt 0.804986 0.230018
vt 0.713812 0.249496
vt 0.760890 0.154981
vt 0.508771 0.821207
vt 0.538414 0.776200
vt 0.551525 0.878215
vt 0.000000 0.315240
vt 0.022847 0.256127
vt 0.051290 0.356728
vt 0.000000 0.824412
vt 0.007689 0.742025
vt 0.042889 0.829134
vt 0.871784 0.165702
vt 0.772937 0.636687
vt 0.722879 0.578501
vt 0.832488 0.570561
vt 0.819630 1.000000
vt 0.800274 0.926812
vt 0.903446 0.965778
vt 0.335791 0.426594
vt 0.305708 0.349929
vt 0.413716 0.377935
vt 0.310010 0.813234
vt 0.268834 0.732608
vt 0.379737 0.751449
vt 0.893242 0.266844
vt 0.864114 0.659731
vt 0.234494 0.068318
vt 0.283269 0.000000
vt 0.328385 0.076132
vt 0.414623 0.464578
vt 0.396431 0.853344
vt 0.686764 0.672577
vt 0.600563 0.722449
vt 0.626425 0.616678
vt 0.544793 0.673698
vt 0.695088 0.452414
vt 0.790700 0.418367
vt 0.792854 0.504407
vt 0.616589 0.468090
vt 0.605069 0.376330
vt 0.696604 0.350189
vt 0.795610 0.318630
vt 0.619473 0.273647
vt 0.295844 0.897475
vt 0.216985 0.822857
vt 0.284347 0.985247
vt 0.193743 0.914689
vt 0.658395 0.170091
vt 0.718022 0.075798
vt 0.119271 0.829047
vt 0.618669 0.092217
vt 0.566860 0.196232
vt 0.097945 0.918143
vt 0.511367 0.226243
vt 0.726098 0.978622
vt 0.628009 0.935999
vt 0.697170 0.887730
vt 0.601110 0.832480
vt 0.783282 0.827542
vt 0.682741 0.775460
vt 0.774051 0.722781
vt 0.239864 0.419263
vt 0.136081 0.395262
vt 0.197582 0.327347
vt 0.093817 0.292937
vt 0.273914 0.250124
vt 0.166280 0.216634
vt 0.248822 0.148727
vt 0.076541 0.184673
vt 0.154535 0.117460
vt 0.164018 0.733249
vt 0.068220 0.736704
vt 0.227806 0.640128
vt 0.125280 0.637383
vt 0.198433 0.558389
vt 0.095433 0.447218
vt 0.045586 0.646700
vt 0.199198 0.481629
vt 0.307176 0.490119
vt 0.832245 0.077873
vt 0.950157 0.098240
vt 0.914560 0.011799
vt 0.792519 0.000000
vt 0.492911 0.985247
vt 0.391226 0.948241
vt 0.494906 0.892866
vt 0.786796 0.504407
vt 0.905608 0.508899
vt 0.992191 0.504407
vt 0.892553 0.471507
vt 1.000000 0.414515
vt 0.894070 0.369282
vt 0.995076 0.309962
vt 0.892345 0.873594
vt 0.999255 0.909111
vt 0.991461 0.804208
vt 0.877917 0.761324
vt 0.971811 0.695560
vt 0.388908 0.281866
vt 0.500007 0.308750
vt 0.476470 0.201973
vt 0.357605 0.171152
vt 0.440464 0.098159
vt 0.343130 0.654664
vt 0.459962 0.679568
vt 0.426443 0.579532
vt 0.304391 0.558798
vt 0.386276 0.497220
vt 0.274136 0.490119
vt 0.977901 0.200980
vt 0.942227 0.593804
vt 0.395516 0.007474
vt 0.994430 1.000000
vt 0.508771 0.408038
vt 0.501906 0.490119
vt 0.483553 0.787537
vn 0.000000 -1.000000 0.000000
vn 0.159300 -0.980400 0.115800
vn -0.060900 -0.980400 0.187300
vn 0.672400 -0.556000 0.488500
vn 0.519300 -0.766700 0.377300
vn 0.744700 -0.613900 0.261600
vn -0.197000 -0.980400 0.000000
vn -0.060900 -0.980400 -0.187300
vn 0.159300 -0.980400 -0.115800
vn 0.891400 0.050300 0.450400
vn -0.256800 -0.556000 0.790500
vn -0.018600 -0.613900 0.789100
vn -0.152900 0.050200 0.986900
vn -0.831200 -0.556000 0.000000
vn -0.756300 -0.613900 0.226100
vn -0.985900 0.050200 0.159600
vn -0.256800 -0.556000 -0.790500
vn -0.448700 -0.613900 -0.649400
vn -0.456400 0.050200 -0.888300
vn 0.672400 -0.556000 -0.488500
vn 0.478900 -0.613900 -0.627400
vn 0.703800 0.050200 -0.708600
vn 0.703800 0.050200 0.708600
vn -0.456400 0.050200 0.888300
vn -0.985900 0.050200 -0.159600
vn -0.152900 0.050200 -0.986900
vn 0.891400 0.050200 -0.450400
vn -0.198300 -0.766700 0.610500
vn -0.129300 -0.908200 0.398100
vn 0.049800 -0.817200 0.574200
vn 0.110100 -0.934300 0.338900
vn 0.238600 -0.635400 0.734300
vn 0.297300 -0.817200 0.493800
vn 0.478900 -0.613900 0.627400
vn 0.338600 -0.908200 0.246000
vn 0.744700 -0.613900 -0.261600
vn 0.519300 -0.766700 -0.377300
vn 0.772100 -0.635400 0.000000
vn 0.561500 -0.817200 -0.130100
vn 0.561500 -0.817200 0.130100
vn 0.338600 -0.908200 -0.246000
vn 0.356400 -0.934300 0.000000
vn -0.641900 -0.766700 0.000000
vn -0.418600 -0.908200 0.000000
vn -0.530700 -0.817200 0.224800
vn -0.288300 -0.934300 0.209500
vn -0.624700 -0.635400 0.453800
vn -0.377800 -0.817200 0.435300
vn -0.448700 -0.613900 0.649400
vn -0.198300 -0.766700 -0.610500
vn -0.129300 -0.908200 -0.398100
vn -0.377800 -0.817200 -0.435300
vn -0.288300 -0.934300 -0.209500
vn -0.624700 -0.635400 -0.453800
vn -0.530700 -0.817200 -0.224800
vn -0.756300 -0.613900 -0.226100
vn 0.297200 -0.817200 -0.493800
vn 0.110100 -0.934300 -0.338900
vn 0.238600 -0.635400 -0.734300
vn 0.049800 -0.817200 -0.574200
vn -0.018600 -0.613900 -0.789100
vn 0.974900 -0.156500 0.158000
vn 0.953300 -0.052300 0.297300
vn 0.988700 -0.149600 0.000000
vn 0.974900 -0.156500 -0.158000
vn 0.953300 -0.052300 -0.297300
vn 0.151000 -0.156500 0.976000
vn 0.011800 -0.052300 0.998600
vn 0.305500 -0.149600 0.940300
vn 0.451500 -0.156500 0.878400
vn 0.577400 -0.052300 0.814800
vn -0.881600 -0.156500 0.445300
vn -0.946000 -0.052300 0.319800
vn -0.799900 -0.149600 0.581200
vn -0.695900 -0.156500 0.700900
vn -0.596500 -0.052300 0.800900
vn -0.695900 -0.156500 -0.700900
vn -0.596500 -0.052300 -0.800900
vn -0.799900 -0.149600 -0.581200
vn -0.881600 -0.156500 -0.445300
vn -0.946000 -0.052300 -0.319800
vn 0.451500 -0.156500 -0.878400
vn 0.577400 -0.052300 -0.814800
vn 0.305500 -0.149600 -0.940300
vn 0.151000 -0.156500 -0.976000
vn 0.011800 -0.052300 -0.998600
vn 0.808800 0.022900 0.587600
vn -0.308900 0.022900 0.950800
vn -0.999700 0.022900 0.000000
vn -0.309000 0.022900 -0.950800
vn 0.808800 0.022900 -0.587600
s 1
f 1/1/1 10/2/2 9/3/3
f 2/4/4 12/5/5 18/6/6
f 1/7/1 9/8/3 24/9/7
f 1/10/1 24/11/7 30/12/8
f 1/13/1 30/14/8 19/15/9
f 2/4/4 18/6/6 38/16/10
f 3/17/11 15/18/12 42/19/13
f 4/20/14 27/21/15 46/22/16
f 5/23/17 33/24/18 50/25/19
f 6/26/20 36/27/21 54/28/22
f 2/4/4 38/16/10 43/29/23
f 3/17/11 42/19/13 47/30/24
f 4/31/14 46/32/16 51/33/25
f 5/23/17 50/25/19 55/34/26
f 6/26/20 54/28/22 39/35/27
f 7/36/28 15/18/12 3/17/11
f 8/37/29 57/38/30 7/36/28
f 9/8/3 58/39/31 8/37/29
f 7/36/28 57/38/30 15/18/12
f 57/40/30 14/41/32 15/42/12
f 8/43/29 58/44/31 57/40/30
f 58/44/31 59/45/33 57/40/30
f 57/40/30 59/45/33 14/41/32
f 59/45/33 13/46/34 14/41/32
f 9/3/3 10/2/2 58/44/31
f 10/2/2 11/47/35 58/44/31
f 58/44/31 11/47/35 59/45/33
f 11/47/35 12/5/5 59/45/33
f 59/45/33 12/5/5 13/46/34
f 12/5/5 2/4/4 13/46/34
f 16/48/36 21/49/37 6/26/20
f 17/50/38 60/51/39 16/48/36
f 18/6/6 61/52/40 17/53/38
f 16/48/36 60/51/39 21/49/37
f 60/51/39 20/54/41 21/49/37
f 17/53/38 61/52/40 60/55/39
f 61/52/40 62/56/42 60/55/39
f 60/51/39 62/57/42 20/54/41
f 62/57/42 19/15/9 20/54/41
f 18/6/6 12/5/5 61/52/40
f 12/5/5 11/47/35 61/52/40
f 61/52/40 11/47/35 62/56/42
f 11/47/35 10/2/2 62/56/42
f 62/56/42 10/2/2 19/58/9
f 10/2/2 1/1/1 19/58/9
f 22/59/43 27/21/15 4/20/14
f 23/60/44 63/61/45 22/59/43
f 24/9/7 64/62/46 23/60/44
f 22/59/43 63/61/45 27/21/15
f 63/61/45 26/63/47 27/21/15
f 23/60/44 64/62/46 63/61/45
f 64/62/46 65/64/48 63/61/45
f 63/61/45 65/64/48 26/63/47
f 65/64/48 25/65/49 26/63/47
f 24/9/7 9/8/3 64/62/46
f 9/8/3 8/37/29 64/62/46
f 64/62/46 8/37/29 65/64/48
f 8/37/29 7/36/28 65/64/48
f 65/64/48 7/36/28 25/65/49
f 7/36/28 3/17/11 25/65/49
f 28/66/50 33/24/18 5/23/17
f 29/67/51 66/68/52 28/66/50
f 30/12/8 67/69/53 29/67/51
f 28/66/50 66/68/52 33/24/18
f 66/68/52 32/70/54 33/24/18
f 29/67/51 67/69/53 66/68/52
f 67/69/53 68/71/55 66/68/52
f 66/68/52 68/71/55 32/70/54
f 68/71/55 31/72/56 32/70/54
f 30/12/8 24/11/7 67/69/53
f 24/11/7 23/73/44 67/69/53
f 67/69/53 23/73/44 68/71/55
f 23/73/44 22/74/43 68/71/55
f 68/71/55 22/74/43 31/72/56
f 22/74/43 4/31/14 31/72/56
f 21/49/37 36/27/21 6/26/20
f 20/54/41 69/75/57 21/49/37
f 19/15/9 70/76/58 20/54/41
f 21/49/37 69/75/57 36/27/21
f 69/75/57 35/77/59 36/27/21
f 20/54/41 70/76/58 69/75/57
f 70/76/58 71/78/60 69/75/57
f 69/75/57 71/78/60 35/77/59
f 71/78/60 34/79/61 35/77/59
f 19/15/9 30/14/8 70/76/58
f 30/12/8 29/67/51 70/80/58
f 70/76/58 29/81/51 71/78/60
f 29/67/51 28/66/50 71/82/60
f 71/82/60 28/66/50 34/83/61
f 28/66/50 5/23/17 34/83/61
f 38/16/10 73/84/62 37/85/63
f 37/85/63 73/84/62 72/86/64
f 73/84/62 74/87/65 72/86/64
f 72/88/64 74/89/65 40/90/66
f 74/89/65 39/35/27 40/90/66
f 38/16/10 18/6/6 73/84/62
f 18/6/6 17/53/38 73/84/62
f 73/84/62 17/53/38 74/87/65
f 17/50/38 16/48/36 74/89/65
f 74/89/65 16/48/36 39/35/27
f 16/48/36 6/26/20 39/35/27
f 42/19/13 76/91/67 41/92/68
f 41/93/68 76/94/67 75/95/69
f 76/94/67 77/96/70 75/95/69
f 75/95/69 77/96/70 44/97/71
f 77/96/70 43/29/23 44/97/71
f 42/19/13 15/18/12 76/91/67
f 15/42/12 14/41/32 76/94/67
f 76/94/67 14/41/32 77/96/70
f 14/41/32 13/46/34 77/96/70
f 77/96/70 13/46/34 43/29/23
f 13/46/34 2/4/4 43/29/23
f 46/22/16 79/98/72 45/99/73
f 45/99/73 79/98/72 78/100/74
f 79/98/72 80/101/75 78/100/74
f 78/100/74 80/101/75 48/102/76
f 80/101/75 47/30/24 48/102/76
f 46/22/16 27/21/15 79/98/72
f 27/21/15 26/63/47 79/98/72
f 79/98/72 26/63/47 80/101/75
f 26/63/47 25/65/49 80/101/75
f 80/101/75 25/65/49 47/30/24
f 25/65/49 3/17/11 47/30/24
f 50/25/19 82/103/77 49/104/78
f 49/104/78 82/103/77 81/105/79
f 82/103/77 83/106/80 81/105/79
f 81/105/79 83/106/80 52/107/81
f 83/106/80 51/33/25 52/107/81
f 50/25/19 33/24/18 82/103/77
f 33/24/18 32/70/54 82/103/77
f 82/103/77 32/70/54 83/106/80
f 32/70/54 31/72/56 83/106/80
f 83/106/80 31/72/56 51/33/25
f 31/72/56 4/31/14 51/33/25
f 54/28/22 85/108/82 53/109/83
f 53/109/83 85/108/82 84/110/84
f 85/108/82 86/111/85 84/110/84
f 84/110/84 86/111/85 56/112/86
f 86/111/85 55/113/26 56/112/86
f 54/28/22 36/27/21 85/108/82
f 36/27/21 35/77/59 85/108/82
f 85/108/82 35/77/59 86/111/85
f 35/77/59 34/79/61 86/111/85
f 86/111/85 34/79/61 55/113/26
f 34/83/61 5/23/17 55/34/26
f 43/29/23 87/114/87 44/97/71
f 43/29/23 38/16/10 87/114/87
f 38/16/10 37/85/63 87/114/87
f 47/30/24 88/115/88 48/102/76
f 47/30/24 42/19/13 88/115/88
f 42/19/13 41/92/68 88/115/88
f 51/33/25 89/116/89 52/107/81
f 51/33/25 46/32/16 89/116/89
f 46/22/16 45/99/73 89/117/89
f 55/34/26 90/118/90 56/119/86
f 55/34/26 50/25/19 90/118/90
f 50/25/19 49/104/78 90/118/90
f 39/35/27 91/120/91 40/90/66
f 39/35/27 54/28/22 91/120/91
f 54/28/22 53/109/83 91/120/91
