# Blender v2.74 (sub 0) OBJ File: 'tile.blend'
# www.blender.org
o Cube.002_Cube.005
v 1.464528 3.055012 1.465779
v 1.464528 2.965176 1.465779
v 1.575607 2.965176 1.465779
v 1.464528 2.965176 1.565168
v 1.553526 0.034855 1.465147
v 1.465770 0.034855 1.465147
v 1.575607 2.965176 1.565168
v 1.465770 -0.087755 1.465147
v 1.464528 3.055012 1.565168
v 1.553526 0.034855 1.588335
v 1.465770 -0.087755 1.588335
v 1.465770 0.034855 1.588335
v 1.575607 3.062174 1.465779
v 1.553526 -0.130929 1.465147
vt 0.695341 -5.220843
vt 0.695341 6.167152
vt 0.614019 6.167151
vt 0.531011 -5.211116
vt 0.368365 -5.211116
vt 0.368365 0.482880
vt 0.614019 -5.220844
vt 0.531011 0.482882
vt 0.000000 0.000000
vn -1.000000 0.000000 0.000000
vn 0.000000 -1.000000 0.000000
vn 0.000000 1.000000 0.000000
vn 0.000000 0.000000 -1.000000
s off
f 1/1/1 2/2/1 4/3/1
f 2/4/2 3/5/2 7/6/2
f 5/1/3 6/2/3 12/3/3
f 6/4/1 8/5/1 11/6/1
f 9/7/1 1/1/1 4/3/1
f 4/8/2 2/4/2 7/6/2
f 10/7/3 5/1/3 12/3/3
f 12/8/1 6/4/1 11/6/1
f 1/1/4 13/9/4 3/9/4
f 5/1/4 14/9/4 8/9/4
f 2/4/4 1/1/4 3/9/4
f 6/4/4 5/1/4 8/9/4
