# Blender v2.72 (sub 0) OBJ File: 'walls_hall.blend'
# www.blender.org
o Cube.004_Cube
v -0.409142 2.986622 0.819660
v -0.409142 2.986622 -0.819660
v 0.409142 2.986622 -0.819660
v 0.409142 2.986622 0.819660
v -0.416610 3.000688 0.834591
v -0.416610 3.000688 -0.834611
v 0.416590 3.000688 -0.834611
v 0.416590 3.000688 0.834591
v -0.416610 3.000688 0.817558
v -0.409142 2.986622 0.802932
v 0.416590 3.000688 0.817558
v 0.409142 2.986622 0.802932
v -0.416610 3.000688 -0.814130
v 0.409142 2.986622 -0.799545
v -0.409142 2.986622 -0.799545
v 0.416590 3.000688 -0.814130
v 0.402818 3.000688 -0.834611
v 0.395616 2.986622 -0.819660
v 0.402818 3.000688 0.834591
v 0.395616 2.986622 0.819660
v 0.395616 2.986622 0.802932
v 0.395616 2.986622 -0.799545
v -0.392235 2.986622 -0.819660
v -0.399395 3.000688 0.834591
v -0.399395 3.000688 -0.834611
v -0.392235 2.986622 0.819660
v -0.392235 2.986622 0.802932
v -0.392235 2.986622 -0.799545
v 0.395616 3.036648 0.802932
v 0.395616 3.036648 -0.799545
v -0.392235 3.036648 0.802932
v -0.392235 3.036648 -0.799545
vt 1.028283 1.369503
vt 1.619439 1.369503
vt 1.619439 1.377272
vt -0.154027 1.369503
vt 0.437128 1.369503
vt 0.437128 1.379969
vt -0.745183 1.369503
vt -0.154028 1.375964
vt 1.028283 2.002707
vt 1.016070 2.002707
vt 2.130282 -0.882529
vt 2.140053 -0.882529
vt 2.140053 -0.874760
vt 1.028283 1.996246
vt 1.619439 1.996246
vt -0.745183 1.375964
vt -0.154028 1.994937
vt 2.130282 -0.255786
vt 2.140053 -0.255786
vt 2.140053 -0.249325
vt 1.028283 1.377272
vt 2.130282 -0.874760
vt -0.745183 2.002707
vt -0.745183 1.994938
vt -0.154027 1.379969
vt 0.437128 1.989624
vt 0.446899 1.369503
vt 0.446899 2.002707
vt 1.561111 -0.882529
vt 1.561111 -0.255786
vt 2.130282 -0.249325
vt 0.410556 -0.882529
vt 0.410556 1.369502
vt -0.167313 1.369502
vt 1.016070 1.369503
vt -0.154027 2.002707
vt -0.154027 1.989624
vt 1.548898 -0.882529
vt 1.561111 -0.874760
vt 1.548898 -0.255786
vt 1.561111 -0.249325
vt 1.548898 -0.874760
vt -0.745183 -0.882529
vt -0.167314 -0.882529
vt 0.979727 -0.882529
vt 0.979727 1.369502
vt 1.619439 2.002707
vt 0.437128 2.002707
vt 1.548898 -0.249325
vt 1.548898 1.369503
vn -0.883200 -0.469000 0.000000
vn 0.000000 -0.728300 -0.685200
vn 0.883800 -0.468000 0.000000
vn 0.000000 -0.727900 0.685700
vn 0.000000 -1.000000 0.000000
vn 0.883700 -0.468000 0.000000
vn 1.000000 0.000000 0.000000
vn 0.000000 -0.728400 -0.685200
vn -1.000000 0.000000 0.000000
vn 0.000000 0.000000 1.000000
vn 0.000000 0.000000 -1.000000
s off
f 6/1/1 2/2/1 15/3/1
f 7/4/2 3/5/2 18/6/2
f 8/7/3 4/4/3 12/8/3
f 5/1/4 1/9/4 26/10/4
f 18/11/5 3/12/5 14/13/5
f 5/9/1 9/14/1 10/15/1
f 11/16/6 12/8/6 14/17/6
f 21/18/5 12/19/5 4/20/5
f 9/14/1 13/21/1 15/3/1
f 22/22/5 14/13/5 12/19/5
f 7/23/6 16/24/6 14/17/6
f 17/25/2 18/6/2 23/26/2
f 8/5/4 19/27/4 20/28/4
f 23/29/5 18/11/5 22/22/5
f 27/30/5 21/18/5 20/31/5
f 28/32/7 32/33/7 31/34/7
f 19/27/4 24/35/4 26/10/4
f 6/36/8 25/37/8 23/26/8
f 2/38/5 23/29/5 28/39/5
f 10/40/5 27/30/5 26/41/5
f 15/42/5 28/39/5 27/30/5
f 21/7/9 29/43/9 30/44/9
f 22/33/10 30/32/10 32/45/10
f 27/46/11 31/45/11 29/38/11
f 13/21/1 6/1/1 15/3/1
f 17/25/8 7/4/8 18/6/8
f 11/16/6 8/7/6 12/8/6
f 24/35/4 5/1/4 26/10/4
f 22/22/5 18/11/5 14/13/5
f 1/47/1 5/9/1 10/15/1
f 16/24/3 11/16/3 14/17/3
f 20/31/5 21/18/5 4/20/5
f 10/15/1 9/14/1 15/3/1
f 21/18/5 22/22/5 12/19/5
f 3/36/3 7/23/3 14/17/3
f 25/37/8 17/25/8 23/26/8
f 4/48/4 8/5/4 20/28/4
f 28/39/5 23/29/5 22/22/5
f 26/41/5 27/30/5 20/31/5
f 27/44/7 28/32/7 31/34/7
f 20/28/4 19/27/4 26/10/4
f 2/48/8 6/36/8 23/26/8
f 15/42/5 2/38/5 28/39/5
f 1/49/5 10/40/5 26/41/5
f 10/40/5 15/42/5 27/30/5
f 22/34/9 21/7/9 30/44/9
f 28/46/10 22/33/10 32/45/10
f 21/50/11 27/46/11 29/38/11
