# Blender v2.72 (sub 0) OBJ File: 'walls_hall.blend'
# www.blender.org
o Plane.005_Plane.004
v 1.500000 -0.000000 -1.500000
v 1.500000 3.000000 -1.500000
v -1.500000 0.000000 -1.500000
v -1.500000 3.000000 -1.500000
v 1.500000 -0.000000 -1.925035
v 1.500000 3.000000 -1.925035
v -1.500000 0.000000 -1.925036
v -1.500000 3.000000 -1.925036
vt 0.000000 0.000000
vt 1.000000 0.000000
vt 1.000000 1.000000
vt 0.000000 1.000000
vn -0.000000 0.000000 1.000000
vn 0.000000 -0.000000 -1.000000
vn 0.000000 1.000000 0.000000
vn -0.000000 -1.000000 0.000000
s off
f 2/1/1 4/2/1 3/3/1
f 7/3/2 8/2/2 6/1/2
f 6/1/3 8/2/3 4/2/3
f 7/3/4 5/4/4 1/4/4
f 1/4/1 2/1/1 3/3/1
f 5/4/2 7/3/2 6/1/2
f 2/1/3 6/1/3 4/2/3
f 3/3/4 7/3/4 1/4/4
